<svg xmlns="http://www.w3.org/2000/svg" width="1920.36" height="133.2" viewBox="0 0 1920.36 133.2"><defs><style>.a{fill:#ecb574;}.b{fill:#90cbe6;}.c{fill:#00b1fc;}.d{fill:#a7ceab;}.e{fill:#c56233;}.f{fill:#ebcd5a;}.g{fill:#9dcba2;}.h{fill:#a1cba6;opacity:0.996;}.i,.j{fill:none;stroke:#fff;stroke-width:3px;}.j{stroke-miterlimit:10;}</style></defs><g transform="translate(-4605.64 216.197)"><path class="a" d="M0,0H30V132.67H0Z" transform="translate(5991.64 -216)"/><path class="b" d="M0,0H504V48.014H0Z" transform="translate(6021.64 -131.344)"/><path class="c" d="M1261.531,233.5h105.727v96.029H228.5V233.5H1261.531Z" transform="translate(4624.382 -412.858)"/><path class="d" d="M0,0H688.77V36.767H0Z" transform="translate(5302.87 -216.125)"/><path class="e" d="M0,0H449.988V36.767H0Z" transform="translate(4852.882 -216.125)"/><path class="f" d="M0,0H247.96V42.267H0Z" transform="translate(4605.64 -125.597)"/><path class="g" d="M0,0H247.96V90.528H0Z" transform="translate(4605.64 -216.125)"/><path class="h" d="M0,0H504V84.781H0Z" transform="translate(6021.64 -216.125)"/><path class="i" d="M592.23,206.811v36.767" transform="translate(4710.64 -422.936)"/><path class="i" d="M104.261,291.5h247.96" transform="translate(4501.379 -417.093)"/><g transform="translate(4605.527 -408.125)"><path class="j" d="M-1,233.5H1137.113" transform="translate(249.5 -4.086)"/><path class="j" d="M228.5,190.25v133.2" transform="translate(20 1.678)"/><path class="j" d="M1539.19,189.25V321.892" transform="translate(-122.887 2.681)"/><path class="j" d="M1417.5,191V323.947" transform="translate(-30.923 0.931)"/><path class="i" d="M1412.259,287.391h504.17" transform="translate(4.044 -13.055)"/></g></g></svg>